<svg width="84" height="134" viewBox="0 0 84 134" version="1.1" xmlns="http://www.w3.org/2000/svg" xmlns:xlink="http://www.w3.org/1999/xlink" xmlns:figma="http://www.figma.com/figma/ns">
<title>Component</title>
<desc>Created using Figma</desc>
<g id="Canvas" transform="translate(-1406 2346)" figma:type="canvas">
<g id="Component" style="mix-blend-mode:normal;" figma:type="symbol">
<g id="Arrow" style="mix-blend-mode:normal;" figma:type="vector">
<use xlink:href="#path0_stroke" transform="matrix(-0.00892822 0.99996 -0.99996 -0.00892822 1449.29 -2323.99)" style="mix-blend-mode:normal;"/>
</g>
<g id="That&#226;&#128;&#153;s me" style="mix-blend-mode:normal;" figma:type="text">
<use xlink:href="#path1_fill" transform="translate(1406 -2346)" style="mix-blend-mode:normal;"/>
</g>
</g>
</g>
<defs>
<path id="path0_stroke" d="M 72.3537 0.3504C 72.5472 0.153402 72.5444 -0.163168 72.3474 -0.356679L 69.1371 -3.51012C 68.9401 -3.70363 68.6236 -3.70081 68.43 -3.50381C 68.2365 -3.30681 68.2394 -2.99024 68.4364 -2.79673L 71.2899 0.00633088L 68.4869 2.8599C 68.2934 3.0569 68.2962 3.37347 68.4932 3.56698C 68.6902 3.76049 69.0068 3.75766 69.2003 3.56066L 72.3537 0.3504ZM 0.00446426 1.14285L 72.0015 0.499998L 71.9925 -0.499963L -0.00446426 0.14289L 0.00446426 1.14285Z"/>
<path id="path1_fill" d="M 4.752 3.886L 0.396 3.886L 0.396 3.13L 9.972 3.13L 9.972 3.886L 5.616 3.886L 5.616 16L 4.752 16L 4.752 3.886ZM 21.0376 16L 21.0376 10.096L 12.9196 10.096L 12.9196 16L 12.0916 16L 12.0916 4.318L 12.9196 4.318L 12.9196 9.358L 21.0376 9.358L 21.0376 4.318L 21.8656 4.318L 21.8656 16L 21.0376 16ZM 26.7653 11.95L 25.0913 16L 24.2453 16L 29.1413 4.246L 29.6273 4.246L 34.5593 16L 33.6413 16L 31.9493 11.95L 26.7653 11.95ZM 29.3393 5.578C 29.1593 6.118 28.9973 6.568 28.8533 6.928L 27.0533 11.248L 31.6613 11.248L 29.8793 6.946C 29.6033 6.274 29.4233 5.818 29.3393 5.578ZM 37.9101 5.056L 33.9501 5.056L 33.9501 4.318L 42.6801 4.318L 42.6801 5.056L 38.7201 5.056L 38.7201 16L 37.9101 16L 37.9101 5.056ZM 44.1522 3.13L 45.1062 3.13L 45.1062 4.012L 44.3502 5.398L 43.9362 5.398L 44.1522 4.3L 44.1522 3.13ZM 50.2739 4.822C 49.6259 4.822 49.0979 4.978 48.6899 5.29C 48.2819 5.602 48.0779 6.04 48.0779 6.604C 48.0779 7.252 48.3479 7.834 48.8879 8.35C 49.2719 8.722 49.7639 9.118 50.3639 9.538C 50.9759 9.946 51.3959 10.24 51.6239 10.42C 51.8519 10.6 52.1279 10.846 52.4519 11.158C 53.0399 11.746 53.3339 12.424 53.3339 13.192C 53.3339 14.188 52.9979 14.944 52.3259 15.46C 51.6659 15.964 50.7359 16.216 49.5359 16.216C 48.3479 16.216 47.3519 15.904 46.5479 15.28L 46.9799 14.65C 47.7959 15.202 48.6599 15.478 49.5719 15.478C 50.4839 15.478 51.1919 15.286 51.6959 14.902C 52.2119 14.518 52.4699 13.978 52.4699 13.282C 52.4699 12.682 52.2119 12.13 51.6959 11.626C 51.3359 11.266 50.8499 10.876 50.2379 10.456C 49.6379 10.036 49.2179 9.736 48.9779 9.556C 48.7379 9.364 48.4559 9.112 48.1319 8.8C 47.5199 8.188 47.2139 7.48 47.2139 6.676C 47.2139 5.872 47.4959 5.242 48.0599 4.786C 48.6359 4.33 49.4279 4.102 50.4359 4.102C 51.4439 4.102 52.3499 4.3 53.1539 4.696L 52.8479 5.362C 52.1039 5.002 51.2459 4.822 50.2739 4.822ZM 68.5565 15.388L 68.0705 15.388L 64.6685 7.126C 64.5245 6.802 64.3805 6.424 64.2365 5.992C 64.2365 6.004 64.2245 6.07 64.2005 6.19C 64.1885 6.31 64.1705 6.472 64.1465 6.676C 64.1225 6.868 64.0985 7.03 64.0745 7.162L 62.7245 16L 61.9145 16L 63.8225 4.246L 64.3085 4.246L 67.9445 12.868C 68.2325 13.588 68.3765 13.966 68.3765 14.002C 68.4605 13.75 68.6225 13.378 68.8625 12.886L 72.9125 4.246L 73.3985 4.246L 75.1805 16L 74.3165 16L 73.0385 7.126C 72.9545 6.538 72.9125 6.148 72.9125 5.956L 72.3905 7.144L 68.5565 15.388ZM 78.2733 16L 78.2733 4.318L 83.7273 4.318L 83.7273 5.038L 79.1013 5.038L 79.1013 9.286L 83.2773 9.286L 83.2773 9.988L 79.1013 9.988L 79.1013 15.244L 83.9073 15.244L 83.9073 16L 78.2733 16Z"/>
</defs>
</svg>
