<?xml version="1.0" standalone="no"?>
<!DOCTYPE svg PUBLIC "-//W3C//DTD SVG 20010904//EN"
 "http://www.w3.org/TR/2001/REC-SVG-20010904/DTD/svg10.dtd">
<svg version="1.0" xmlns="http://www.w3.org/2000/svg"
 width="16.000000pt" height="16.000000pt" viewBox="0 0 16.000000 16.000000"
 preserveAspectRatio="xMidYMid meet">
<metadata>
Created by potrace 1.11, written by Peter Selinger 2001-2013
</metadata>
<g transform="translate(0.000000,16.000000) scale(0.004255,-0.004255)"
fill="#000000" stroke="none">
<path d="M440 1880 l0 -1820 1440 0 1440 0 0 1820 0 1820 -1440 0 -1440 0 0
-1820z m2835 0 l0 -1775 -1395 0 -1395 0 -3 1765 c-1 971 0 1771 3 1778 3 10
288 12 1397 10 l1393 -3 0 -1775z"/>
<path d="M1781 3168 c-34 -91 -289 -807 -306 -863 -13 -40 -25 -64 -28 -55 -3
8 -39 107 -80 220 -41 113 -117 319 -168 458 l-93 252 -56 0 c-112 0 -124 55
115 -543 l213 -532 74 -3 74 -3 202 538 c111 296 202 541 202 546 0 4 -32 7
-70 7 -64 0 -71 -2 -79 -22z"/>
<path d="M2450 2640 l0 -540 70 0 70 0 0 540 0 540 -70 0 -70 0 0 -540z"/>
<path d="M1320 1160 l0 -540 70 0 70 0 0 540 0 540 -70 0 -70 0 0 -540z"/>
<path d="M2195 1660 c-112 -14 -210 -52 -317 -123 l-48 -32 0 -202 0 -203 225
0 225 0 0 65 0 65 -155 0 -155 0 0 100 0 100 43 27 c160 101 374 103 508 4 90
-66 138 -170 147 -316 11 -202 -66 -363 -205 -432 -46 -22 -74 -28 -148 -31
-166 -7 -261 42 -316 164 l-29 63 -62 -17 c-58 -16 -63 -20 -60 -42 7 -47 65
-150 105 -186 192 -174 592 -138 745 68 51 68 65 96 93 188 33 105 34 283 2
385 -26 83 -83 175 -141 227 -107 97 -292 148 -457 128z"/>
</g>
</svg>
